<svg width="44" height="49" viewBox="0 0 44 49" fill="none" xmlns="http://www.w3.org/2000/svg">
<path d="M17.9298 41.288L17.9293 41.2859C17.8381 40.9333 17.7464 40.5702 17.6591 40.1886C16.6409 35.7555 16.1133 29.7903 16.1133 24.0217C16.1133 18.429 16.6094 12.6546 17.5683 8.27165C18.0472 6.08234 18.645 4.22443 19.3633 2.90775C20.0726 1.60749 20.9482 0.75 22.0134 0.75C23.0789 0.75 23.9547 1.60744 24.6641 2.90774C25.3824 4.22443 25.9801 6.08235 26.459 8.27166C27.4177 12.6546 27.9135 18.429 27.9135 24.0217C27.9135 29.7637 27.3917 35.7023 26.3795 40.1294C26.2944 40.5063 26.2069 40.8782 26.1086 41.2337C25.8543 42.2076 25.5711 43.0855 25.2598 43.8576C25.2598 43.8578 25.2597 43.858 25.2596 43.8582L25.0277 43.7647C24.79 44.3593 24.5376 44.8817 24.2631 45.3246L17.9298 41.288ZM17.9298 41.288C18.2123 42.3423 18.5268 43.2925 18.8713 44.1105L18.8717 44.1112C19.0912 44.6279 19.3225 45.0863 19.5662 45.4869L19.5664 45.4873C20.2353 46.5826 21.0431 47.2905 22.0134 47.2905C22.9888 47.2905 23.8065 46.5701 24.4765 45.4549L17.9298 41.288ZM19.0995 39.5131L19.0994 39.513C18.2647 35.6876 17.6905 30.3215 17.6905 24.0217C17.6905 17.5691 18.2922 12.1025 19.1601 8.25557C19.5946 6.33026 20.0931 4.82226 20.6099 3.80159C20.8687 3.29061 21.126 2.91388 21.3726 2.66827C21.6203 2.42171 21.8346 2.32868 22.0134 2.32868C22.1924 2.32868 22.4069 2.42176 22.6546 2.66831C22.9013 2.91391 23.1587 3.29063 23.4174 3.80161C23.9343 4.82226 24.4328 6.33025 24.8671 8.25556C25.735 12.1025 26.3363 17.5691 26.3363 24.0217V24.0218C26.3377 30.295 25.768 35.6391 24.939 39.4602C24.5697 41.1567 24.1539 42.5475 23.7201 43.5869C23.413 44.312 23.1019 44.8553 22.7993 45.213C22.4926 45.5757 22.2277 45.7104 22.0134 45.7104C21.8094 45.7104 21.5611 45.5904 21.2745 45.269C20.9906 44.9506 20.6979 44.4652 20.4073 43.8131C19.9383 42.7601 19.4907 41.3108 19.0995 39.5131Z" fill="#F89C13" stroke="#F89C13" stroke-width="0.5"/>
<path d="M0.75 33.571V33.9129L1.07581 33.8092L17.5932 28.5526L17.7673 28.4972V28.3144V16.9463V16.5841L17.4287 16.7125L15.989 17.2585L15.9689 17.2661L15.9504 17.2771L0.872714 26.1964L0.75 26.269V26.4116V33.571ZM16.1902 18.958V27.3414L2.32572 31.7545V27.1692L16.1902 18.958Z" fill="#F89C13" stroke="#F89C13" stroke-width="0.5"/>
<path d="M42.9235 33.8106L43.2493 33.9143V33.5724V26.4131V26.2706L43.1267 26.198L28.1326 17.3183L28.1146 17.3077L28.095 17.3001L26.5732 16.7144L26.2334 16.5837V16.9478V28.3159V28.4987L26.4076 28.5541L42.9235 33.8106ZM27.8091 18.9624L41.6736 27.1722V31.7574L27.8091 27.3443V18.9624Z" fill="#F89C13" stroke="#F89C13" stroke-width="0.5"/>
<path d="M19.0997 39.5133L19.026 39.1741L18.7276 39.3515L17.7758 39.9177L17.7752 39.9181L11.3465 43.7159L11.2236 43.7885V43.9312V47.9987V48.3406L11.5495 48.2369L19.8573 45.5924L19.8589 45.5919L20.2566 45.4624L20.4292 45.4062V45.2247V43.9135V43.8602L20.4074 43.8116C20.0365 42.9809 19.6789 41.9005 19.352 40.5946V40.2347L19.2749 40.2803C19.2154 40.0322 19.157 39.7765 19.0997 39.5133ZM18.852 41.1114V44.2565L12.7994 46.1794V44.6889L18.2988 41.4386L18.2988 41.4386L18.852 41.1114Z" fill="#F89C13" stroke="#F89C13" stroke-width="0.5"/>
<path d="M26.2638 39.8588L26.2632 39.8584L25.3107 39.2977L25.0131 39.1225L24.9396 39.46C24.5702 41.1569 24.1544 42.548 23.7205 43.5874L23.7012 43.6336V43.6837V45.2274V45.4115L23.877 45.4662L24.1878 45.5627L24.1896 45.5633L32.5763 48.2396L32.9023 48.3436V48.0014V43.9339V43.7914L32.7797 43.7188L26.2638 39.8588ZM25.2769 44.2558V41.1109L25.739 41.3839L25.7392 41.384L31.3251 44.6886V46.1791L25.2769 44.2558Z" fill="#F89C13" stroke="#F89C13" stroke-width="0.5"/>
<path d="M23.3678 9.96014V9.96056C23.3678 10.7105 22.7585 11.3205 22.0123 11.3205C21.266 11.3205 20.6568 10.7105 20.6568 9.96056C20.6568 9.2106 21.266 8.60062 22.0123 8.60062C22.7602 8.60062 23.369 9.21074 23.3678 9.96014ZM19.6182 9.96056C19.6182 11.2841 20.6907 12.3606 22.0123 12.3606C23.3338 12.3606 24.4064 11.2841 24.4064 9.96056C24.4064 8.63691 23.3323 7.56055 22.0123 7.56055C20.6907 7.56055 19.6182 8.63702 19.6182 9.96056Z" fill="#F89C13" stroke="#F89C13" stroke-width="0.5"/>
<path d="M23.0786 16.2834V16.2839C23.0786 16.875 22.5999 17.354 22.0122 17.354C21.4247 17.354 20.9458 16.8737 20.9458 16.2839C20.9458 15.6929 21.4245 15.2139 22.0122 15.2139C22.6004 15.2139 23.0798 15.6933 23.0786 16.2834ZM19.9072 16.2825C19.9072 17.4456 20.8506 18.3926 22.0122 18.3926C23.1737 18.3926 24.1172 17.4472 24.1172 16.2825C24.1172 15.1193 23.1738 14.1724 22.0122 14.1724C20.8506 14.1724 19.9072 15.1193 19.9072 16.2825Z" fill="#F89C13" stroke="#F89C13" stroke-width="0.5"/>
<path d="M23.0786 22.0036V22.0041C23.0786 22.5952 22.5999 23.0742 22.0122 23.0742C21.4247 23.0742 20.9458 22.5939 20.9458 22.0041C20.9458 21.4131 21.4245 20.9341 22.0122 20.9341C22.6004 20.9341 23.0798 21.4135 23.0786 22.0036ZM19.9072 22.0041C19.9072 23.1673 20.8506 24.1143 22.0122 24.1143C23.1738 24.1143 24.1172 23.1673 24.1172 22.0041C24.1172 20.841 23.1738 19.894 22.0122 19.894C20.8506 19.894 19.9072 20.841 19.9072 22.0041Z" fill="#F89C13" stroke="#F89C13" stroke-width="0.5"/>
<path d="M23.0786 27.2073V27.2078C23.0786 27.7988 22.5999 28.2778 22.0122 28.2778C21.4247 28.2778 20.9458 27.7975 20.9458 27.2078C20.9458 26.6167 21.4245 26.1377 22.0122 26.1377C22.6004 26.1377 23.0798 26.6171 23.0786 27.2073ZM19.9072 27.2078C19.9072 28.3709 20.8506 29.3179 22.0122 29.3179C23.1738 29.3179 24.1172 28.3709 24.1172 27.2078C24.1172 26.0446 23.1738 25.0977 22.0122 25.0977C20.8506 25.0977 19.9072 26.0446 19.9072 27.2078Z" fill="#F89C13" stroke="#F89C13" stroke-width="0.5"/>
</svg>
