<svg width="198" height="47" viewBox="0 0 198 47" fill="none" xmlns="http://www.w3.org/2000/svg">
<path d="M13.4249 0.0631798C15.1938 -0.0315841 16.9311 0.031588 18.7001 0L32.1565 35.9155C30.514 35.9155 28.8398 35.8839 27.1972 35.9471C25.9021 32.4408 24.765 28.903 23.533 25.3967H8.6551C7.45476 28.903 6.25442 32.4093 5.02249 35.9155H0V35.8839C4.51708 23.9437 9.03416 12.0034 13.4249 0.0631798ZM10.2345 21.0692H21.9852C20.0268 15.8256 18.1315 10.582 16.1099 5.33836C14.0251 10.5188 12.2245 15.8256 10.2345 21.0692ZM37.0843 0H41.6961V35.9155H37.0843C37.0843 23.9437 37.1159 11.9718 37.0843 0ZM75.8743 0H80.5177C80.4545 4.95931 80.6757 9.91862 80.3282 14.8463C82.034 12.3825 84.8453 10.6767 87.8461 10.5504C90.4995 10.424 93.374 11.2137 95.1745 13.2669C97.0066 15.3202 97.6384 18.1631 97.6384 20.8481V35.9155H93.0266V21.5114C92.995 19.5845 92.6159 17.405 91.0997 16.0783C89.5203 14.7832 87.2144 14.5621 85.2875 15.0675C82.3182 15.9835 80.6125 19.1423 80.5493 22.1432C80.5177 26.755 80.5493 31.3353 80.5493 35.9471H75.9375C75.8427 23.9437 75.8743 11.9718 75.8743 0ZM128.658 0.821289H133.301C133.27 5.49631 133.428 10.1713 133.112 14.8463C134.438 13.0774 136.27 11.656 138.418 11.0242C142.114 9.82385 146.379 10.8663 149.19 13.5512C154.465 18.3842 154.813 27.4815 150.043 32.7883C147.674 35.5365 143.946 37.1159 140.314 36.6104C137.439 36.3262 134.849 34.6836 133.112 32.4092V35.8839H128.689C128.658 24.1964 128.658 12.5088 128.658 0.821289ZM139.398 14.9411C136.934 15.4149 134.881 17.2786 133.996 19.6161C133.049 22.1116 133.017 24.9545 133.933 27.4499C134.754 29.7243 136.65 31.6195 139.019 32.1881C141.609 32.8831 144.547 32.0618 146.315 30.0402C148.179 27.9869 148.748 25.0808 148.463 22.4275C148.274 20.1215 147.263 17.784 145.399 16.331C143.725 15.0043 141.482 14.5305 139.398 14.9411ZM187.032 3.82215H191.644V11.3401H197.488V15.5413H191.644V28.1133C191.644 29.2505 191.834 30.514 192.813 31.2405C194.14 32.2197 195.94 31.9354 197.488 31.7775V35.9471C194.929 36.263 192.118 36.263 189.907 34.7468C187.948 33.4517 187.064 31.0194 187.064 28.745C187.032 24.3543 187.064 19.9636 187.064 15.5413H182.736V11.3401H187.064C187.032 8.81304 187.001 6.31759 187.032 3.82215ZM58.1534 10.7083C62.0072 9.95021 66.082 11.5612 68.5775 14.5305C73.3788 19.9952 72.8418 29.3452 67.2192 34.0518C63.7445 37.1159 58.2482 37.5897 54.3629 35.031C53.2257 34.3677 52.436 33.3569 51.5516 32.4092C51.899 37.0843 51.7095 41.7593 51.7727 46.4027H47.1292V11.3085H51.5516C51.5516 12.4772 51.5516 13.646 51.5831 14.8148C53.131 12.6984 55.5001 11.1505 58.1534 10.7083ZM57.9007 14.9411C55.5948 15.3833 53.6048 17.0575 52.6571 19.1739C51.5831 21.543 51.4884 24.2911 52.1833 26.7866C52.8467 29.2504 54.7419 31.3984 57.2374 32.125C59.8276 32.9462 62.8285 32.1881 64.6922 30.1981C66.6506 28.1449 67.2508 25.144 66.9665 22.3959C66.7454 19.932 65.6082 17.4681 63.5234 16.0467C61.9124 14.9411 59.8276 14.562 57.9007 14.9411ZM106.483 12.035C109.136 10.4872 112.39 10.2661 115.359 10.8347C117.76 11.3085 120.066 12.6352 121.424 14.7516C122.719 16.7416 123.193 19.1423 123.225 21.4798V35.9155H118.802C118.802 34.7468 118.802 33.578 118.771 32.4408C117.128 34.6836 114.664 36.3893 111.853 36.6736C109.547 36.8632 107.083 36.4841 105.093 35.189C100.987 32.6619 100.323 25.9969 104.019 22.8065C105.725 21.2903 107.999 20.5322 110.242 20.2479C113.117 19.9004 116.181 20.1531 118.802 21.4798C118.866 19.8057 118.613 18.0051 117.476 16.71C115.675 14.5936 112.453 14.2462 109.926 15.1306C108.378 15.6676 107.304 16.9943 106.483 18.3526C105.062 17.8472 103.64 17.405 102.219 16.868C103.166 14.9095 104.556 13.109 106.483 12.035ZM110.716 24.1964C109.705 24.3859 108.663 24.765 107.873 25.4599C106.199 26.8182 105.883 29.6611 107.462 31.2089C108.789 32.4408 110.779 32.662 112.516 32.4408C115.77 31.8091 118.739 28.745 118.518 25.3335C116.212 23.9753 113.338 23.8489 110.716 24.1964ZM165.995 10.9294C170.291 9.85545 175.345 11.0242 178.188 14.5621C180.462 17.3102 181.252 21.006 181.062 24.4807H161.794C161.92 26.7234 162.71 29.0293 164.415 30.5771C167.037 33.041 171.459 33.0726 174.239 30.8299C175.25 30.0402 175.977 28.9662 176.514 27.829C177.903 28.366 179.293 28.9978 180.652 29.5663C179.641 31.7775 178.03 33.7675 175.913 34.9995C173.102 36.6736 169.627 37.0843 166.469 36.3893C163.499 35.7576 160.814 33.8623 159.172 31.3037C156.487 27.1656 156.297 21.6378 158.445 17.247C159.93 14.183 162.71 11.7507 165.995 10.9294ZM165.3 15.8572C163.626 16.9312 162.583 18.7632 162.078 20.6585H176.198C175.945 18.4474 174.555 16.3942 172.502 15.5097C170.228 14.4989 167.416 14.4989 165.3 15.8572Z" fill="#ED1B1B"/>
</svg>
