<svg width="183" height="55" viewBox="0 0 183 55" fill="none" xmlns="http://www.w3.org/2000/svg">
<path fill-rule="evenodd" clip-rule="evenodd" d="M113.334 43.0129C102.757 50.8334 87.3722 55 74.103 55C55.5132 55 38.8466 48.141 26.1543 36.7308C25.1927 35.8333 26.0261 34.6154 27.244 35.3205C40.8979 43.2693 57.7568 48.0128 75.1927 48.0128C86.9235 48.0128 99.8722 45.5769 111.795 40.5128C113.59 39.8077 115.065 41.7308 113.334 43.0129Z" fill="#FF9900"/>
<path fill-rule="evenodd" clip-rule="evenodd" d="M117.756 37.9487C116.409 36.218 108.781 37.1154 105.384 37.5641C104.358 37.6923 104.166 36.7949 105.127 36.1539C111.217 31.859 121.153 33.141 122.307 34.5513C123.461 35.9616 121.986 45.9616 116.281 50.7051C115.384 51.4103 114.55 51.0257 114.935 50.0641C116.217 46.859 119.102 39.7436 117.756 37.9487Z" fill="#FF9900"/>
<path fill-rule="evenodd" clip-rule="evenodd" d="M105.577 6.02565L105.577 1.85899C105.577 1.21796 106.026 0.833344 106.603 0.833344L125.192 0.833347C125.769 0.833347 126.282 1.28207 126.282 1.85899L126.282 5.38463C126.282 5.96156 125.769 6.73079 124.872 8.01284L115.256 21.7308C118.846 21.6667 122.628 22.1795 125.833 23.9744C126.538 24.359 126.731 25 126.795 25.5769L126.795 30C126.795 30.641 126.154 31.3462 125.449 30.9615C119.744 27.9487 112.115 27.6282 105.833 31.0257C105.192 31.3462 104.487 30.7051 104.487 30.0641L104.487 25.8333C104.487 25.1923 104.487 24.0385 105.192 23.0128L116.346 7.0513L106.667 7.0513C106.09 7.0513 105.577 6.60258 105.577 6.02565ZM37.8205 31.859L32.1795 31.859C31.6667 31.7949 31.2179 31.4102 31.1538 30.8974L31.1538 1.92308C31.1538 1.34616 31.6667 0.897437 32.2436 0.897437L37.5 0.897438C38.0769 0.897439 38.4615 1.34616 38.5256 1.85898L38.5256 5.64102L38.6538 5.64102C40 1.98718 42.6282 0.256414 46.0897 0.256414C49.6154 0.256415 51.859 1.98718 53.3974 5.64103C54.7436 1.98718 57.8846 0.256416 61.2179 0.256417C63.5897 0.256417 66.1538 1.21796 67.7564 3.46155C69.5513 5.89744 69.1667 9.42309 69.1667 12.5641L69.1667 30.8974C69.1667 31.4744 68.6538 31.9231 68.0769 31.9231L62.5 31.9231C61.9231 31.859 61.4743 31.4103 61.4743 30.8974L61.4743 15.5128C61.4743 14.2949 61.6026 11.2179 61.3462 10.0641C60.8974 8.14102 59.6795 7.5641 58.0128 7.5641C56.6667 7.5641 55.1923 8.46155 54.6154 9.93591C54.0385 11.4103 54.1026 13.8461 54.1026 15.5128L54.1026 30.8974C54.1026 31.4744 53.5897 31.9231 53.0128 31.9231L47.3718 31.9231C46.7949 31.859 46.3461 31.4102 46.3461 30.8974L46.3462 15.5128C46.3462 12.3077 46.859 7.5 42.8846 7.49999C38.8461 7.49999 38.9744 12.1154 38.9744 15.5128L38.9744 30.8974C38.9102 31.4102 38.4615 31.859 37.8205 31.859ZM142.308 0.256431C150.705 0.256433 155.256 7.43592 155.256 16.6026C155.256 25.4487 150.256 32.5 142.308 32.5C134.103 32.5 129.615 25.3205 129.615 16.3462C129.551 7.30771 134.103 0.25643 142.308 0.256431ZM142.308 6.21796C138.141 6.21796 137.885 11.9231 137.885 15.4487C137.885 18.9744 137.82 26.5385 142.244 26.5385C146.603 26.5385 146.859 20.4487 146.859 16.7308C146.859 14.2949 146.731 11.3462 146.026 9.03849C145.385 6.98721 144.103 6.21796 142.308 6.21796ZM166.09 31.859L160.449 31.859C159.872 31.7949 159.423 31.3462 159.423 30.8334L159.423 1.79489C159.487 1.28207 159.936 0.833353 160.513 0.833353L165.769 0.833354C166.282 0.833354 166.667 1.21798 166.795 1.6667L166.795 6.08977L166.923 6.08977C168.526 2.11541 170.705 0.256436 174.615 0.256437C177.115 0.256437 179.615 1.15387 181.218 3.65387C182.692 5.96156 182.692 9.87182 182.692 12.6923L182.692 30.9616C182.628 31.4744 182.179 31.859 181.603 31.859L175.962 31.859C175.449 31.7949 175 31.4103 174.936 30.9616L174.936 15.1923C174.936 11.9872 175.32 7.37182 171.41 7.37182C170.064 7.37182 168.782 8.26926 168.141 9.67952C167.372 11.4744 167.244 13.2051 167.244 15.1923L167.244 30.8334C167.179 31.4103 166.667 31.859 166.09 31.859ZM90.7692 18.0128C90.7692 20.1923 90.8333 22.0513 89.7436 24.0385C88.8461 25.641 87.4359 26.6026 85.8333 26.6026C83.6538 26.6026 82.3718 24.9359 82.3718 22.5C82.3718 17.6923 86.6667 16.7949 90.7692 16.7949L90.7692 18.0128ZM96.4743 31.7949C96.0897 32.1154 95.5769 32.1795 95.1282 31.9231C93.2692 30.3846 92.8846 29.6154 91.859 28.141C88.782 31.2821 86.5384 32.2436 82.5641 32.2436C77.8205 32.2436 74.1026 29.2949 74.1026 23.4616C74.1026 18.8462 76.6026 15.7692 80.1282 14.2308C83.2051 12.8846 87.5 12.6282 90.7692 12.2436L90.7692 11.5385C90.7692 10.1923 90.8974 8.58976 90.0641 7.43592C89.359 6.41027 88.0769 5.96155 86.9231 5.96154C84.7436 5.96154 82.8205 7.0513 82.3718 9.35899C82.2436 9.87181 81.9231 10.3846 81.4102 10.3846L75.9615 9.8077C75.5128 9.67949 75 9.35899 75.1282 8.65386C76.4103 1.98719 82.3718 1.44023e-05 87.7564 1.53438e-05C90.5128 1.58258e-05 94.1026 0.705141 96.2821 2.82053C99.0385 5.38463 98.782 8.84617 98.782 12.5641L98.782 21.3462C98.782 23.9744 99.8718 25.1282 100.897 26.6026C101.282 27.1154 101.346 27.7564 100.897 28.0769C99.6795 29.0385 97.6282 30.8333 96.4743 31.7949ZM16.7308 18.0128C16.7308 20.1923 16.7949 22.0513 15.7051 24.0385C14.8077 25.641 13.3974 26.6026 11.7949 26.6026C9.61538 26.6026 8.33333 24.9359 8.33333 22.5C8.33333 17.6923 12.6282 16.7949 16.7308 16.7949L16.7308 18.0128ZM22.3718 31.7949C21.9872 32.1154 21.4744 32.1795 21.0256 31.9231C19.1667 30.3846 18.782 29.6154 17.7564 28.141C14.6795 31.282 12.4359 32.2436 8.46153 32.2436C3.71794 32.2436 -5.12208e-06 29.2949 -4.10215e-06 23.4615C-3.29517e-06 18.8462 2.49999 15.7692 6.02563 14.2308C9.10256 12.8846 13.3974 12.6282 16.6667 12.2436L16.6667 11.5385C16.6667 10.1923 16.7949 8.58975 15.9615 7.4359C15.2564 6.41026 13.9744 5.96153 12.8205 5.96153C10.641 5.96153 8.71794 7.05129 8.26922 9.35898C8.14102 9.8718 7.82051 10.3846 7.30769 10.3846L1.85897 9.80768C1.41025 9.67948 0.897438 9.35897 1.02564 8.65385C2.3077 1.98718 8.26923 1.44584e-06 13.6538 2.38731e-06C16.4103 2.86926e-06 20 0.705128 22.1795 2.82051C24.9359 5.38462 24.6795 8.84616 24.6795 12.5641L24.6795 21.3461C24.6795 23.9744 25.7692 25.1282 26.7949 26.6026C27.1795 27.1154 27.2436 27.7564 26.7949 28.0769C25.5769 29.0385 23.5256 30.8333 22.3718 31.7949Z" fill="black"/>
</svg>
