<svg width="29" height="35" viewBox="0 0 29 35" fill="none" xmlns="http://www.w3.org/2000/svg">
<path d="M23.8178 18.5944C23.867 23.891 28.4676 25.6536 28.5185 25.6761C28.4796 25.8004 27.7834 28.1879 26.0947 30.6541C24.6349 32.7862 23.1199 34.9105 20.7332 34.9545C18.388 34.9977 17.6339 33.5648 14.9527 33.5648C12.2723 33.5648 11.4345 34.9105 9.2145 34.9977C6.91073 35.0848 5.15644 32.6921 3.6845 30.5678C0.676791 26.2224 -1.62173 18.2889 1.4646 12.9336C2.99782 10.2741 5.7378 8.59003 8.71181 8.54684C10.9741 8.50372 13.1093 10.0677 14.4923 10.0677C15.8743 10.0677 18.4692 8.18687 21.197 8.4631C22.339 8.51059 25.5445 8.92407 27.6029 11.9349C27.437 12.0376 23.778 14.1662 23.8178 18.5944V18.5944ZM19.4103 5.58827C20.6334 4.10881 21.4566 2.04925 21.232 0C19.469 0.0708071 17.3372 1.17399 16.0726 2.65265C14.9394 3.96206 13.9469 6.05787 14.2147 8.06656C16.1797 8.21849 18.1872 7.06869 19.4103 5.58828" fill="white"/>
</svg>
