<svg width="74" height="90" viewBox="0 0 74 90" fill="none" xmlns="http://www.w3.org/2000/svg">
<path d="M61.2458 47.8142C61.3723 61.434 73.2023 65.9664 73.3333 66.0242C73.2333 66.3439 71.4431 72.4832 67.1008 78.8248C63.347 84.3074 59.4511 89.7699 53.3138 89.883C47.2834 89.9941 45.3443 86.3094 38.4498 86.3094C31.5574 86.3094 29.4029 89.7699 23.6944 89.9941C17.7705 90.2181 13.2594 84.0654 9.47444 78.6029C1.74032 67.4291 -4.17015 47.0285 3.76612 33.2577C7.70868 26.4191 14.7544 22.0886 22.4018 21.9776C28.219 21.8667 33.7097 25.8885 37.2659 25.8885C40.8197 25.8885 47.4921 21.0519 54.5066 21.7623C57.4431 21.8844 65.6859 22.9476 70.9788 30.6897C70.5523 30.9539 61.1435 36.4275 61.2458 47.8142V47.8142ZM49.9123 14.3698C53.0573 10.5655 55.1742 5.26949 54.5967 0C50.0633 0.182075 44.5814 3.01883 41.3297 6.82109C38.4155 10.1882 35.8634 15.5774 36.552 20.7426C41.605 21.1333 46.767 18.1766 49.9123 14.3699" fill="#303030"/>
</svg>
