<svg width="16" height="16" viewBox="0 0 16 16" fill="none" xmlns="http://www.w3.org/2000/svg">
<path d="M15.5477 11.7424L13.3149 9.50953C12.5174 8.71208 11.1618 9.03109 10.8428 10.0677C10.6035 10.7855 9.8061 11.1842 9.0884 11.0247C7.49351 10.626 5.34041 8.5526 4.94169 6.87796C4.70246 6.16023 5.18092 5.36278 5.89862 5.12358C6.9353 4.8046 7.25428 3.44895 6.45684 2.6515L4.22399 0.418658C3.58603 -0.139553 2.6291 -0.139553 2.07089 0.418658L0.555745 1.9338C-0.9594 3.52869 0.715234 7.75515 4.46322 11.5031C8.21122 15.2511 12.4377 17.0055 14.0326 15.4106L15.5477 13.8955C16.1059 13.2575 16.1059 12.3006 15.5477 11.7424Z" fill="#DACAFF"/>
</svg>
