<svg width="654" height="983" viewBox="0 0 654 983" fill="none" xmlns="http://www.w3.org/2000/svg">
<circle opacity="0.6" cx="491.5" cy="491.5" r="491.5" fill="#EDF7FF"/>
<circle cx="231.423" cy="173.423" r="2.42308" fill="#C9DCEC"/>
<circle cx="255.654" cy="173.423" r="2.42308" fill="#C9DCEC"/>
<circle cx="279.885" cy="173.423" r="2.42308" fill="#C9DCEC"/>
<circle cx="304.115" cy="173.423" r="2.42308" fill="#C9DCEC"/>
<circle cx="328.346" cy="173.423" r="2.42308" fill="#C9DCEC"/>
<circle cx="352.577" cy="173.423" r="2.42308" fill="#C9DCEC"/>
<circle cx="231.423" cy="197.654" r="2.42308" fill="#C9DCEC"/>
<circle cx="255.654" cy="197.654" r="2.42308" fill="#C9DCEC"/>
<circle cx="279.885" cy="197.654" r="2.42308" fill="#C9DCEC"/>
<circle cx="304.115" cy="197.654" r="2.42308" fill="#C9DCEC"/>
<circle cx="328.346" cy="197.654" r="2.42308" fill="#C9DCEC"/>
<circle cx="352.577" cy="197.654" r="2.42308" fill="#C9DCEC"/>
<circle cx="231.423" cy="221.885" r="2.42308" fill="#C9DCEC"/>
<circle cx="255.654" cy="221.885" r="2.42308" fill="#C9DCEC"/>
<circle cx="279.885" cy="221.885" r="2.42308" fill="#C9DCEC"/>
<circle cx="304.115" cy="221.885" r="2.42308" fill="#C9DCEC"/>
<circle cx="328.346" cy="221.885" r="2.42308" fill="#C9DCEC"/>
<circle cx="352.577" cy="221.885" r="2.42308" fill="#C9DCEC"/>
<circle cx="231.423" cy="246.115" r="2.42308" fill="#C9DCEC"/>
<circle cx="255.654" cy="246.115" r="2.42308" fill="#C9DCEC"/>
<circle cx="279.885" cy="246.115" r="2.42308" fill="#C9DCEC"/>
<circle cx="304.115" cy="246.115" r="2.42308" fill="#C9DCEC"/>
<circle cx="328.346" cy="246.115" r="2.42308" fill="#C9DCEC"/>
<circle cx="352.577" cy="246.115" r="2.42308" fill="#C9DCEC"/>
<circle cx="231.423" cy="270.346" r="2.42308" fill="#C9DCEC"/>
<circle cx="255.654" cy="270.346" r="2.42308" fill="#C9DCEC"/>
<circle cx="279.885" cy="270.346" r="2.42308" fill="#C9DCEC"/>
<circle cx="304.115" cy="270.346" r="2.42308" fill="#C9DCEC"/>
<circle cx="328.346" cy="270.346" r="2.42308" fill="#C9DCEC"/>
<circle cx="352.577" cy="270.346" r="2.42308" fill="#C9DCEC"/>
<circle cx="231.423" cy="294.577" r="2.42308" fill="#C9DCEC"/>
<circle cx="255.654" cy="294.577" r="2.42308" fill="#C9DCEC"/>
<circle cx="279.885" cy="294.577" r="2.42308" fill="#C9DCEC"/>
<circle cx="304.115" cy="294.577" r="2.42308" fill="#C9DCEC"/>
<circle cx="328.346" cy="294.577" r="2.42308" fill="#C9DCEC"/>
<circle cx="352.577" cy="294.577" r="2.42308" fill="#C9DCEC"/>
<circle cx="231.423" cy="318.808" r="2.42308" fill="#C9DCEC"/>
<circle cx="255.654" cy="318.808" r="2.42308" fill="#C9DCEC"/>
<circle cx="279.885" cy="318.808" r="2.42308" fill="#C9DCEC"/>
<circle cx="304.115" cy="318.808" r="2.42308" fill="#C9DCEC"/>
<circle cx="328.346" cy="318.808" r="2.42308" fill="#C9DCEC"/>
<circle cx="352.577" cy="318.808" r="2.42308" fill="#C9DCEC"/>
<circle cx="231.423" cy="343.039" r="2.42308" fill="#C9DCEC"/>
<circle cx="255.654" cy="343.039" r="2.42308" fill="#C9DCEC"/>
<circle cx="279.885" cy="343.039" r="2.42308" fill="#C9DCEC"/>
<circle cx="304.115" cy="343.039" r="2.42308" fill="#C9DCEC"/>
<circle cx="328.346" cy="343.039" r="2.42308" fill="#C9DCEC"/>
<circle cx="352.577" cy="343.039" r="2.42308" fill="#C9DCEC"/>
<circle cx="231.423" cy="367.269" r="2.42308" fill="#C9DCEC"/>
<circle cx="255.654" cy="367.269" r="2.42308" fill="#C9DCEC"/>
<circle cx="279.885" cy="367.269" r="2.42308" fill="#C9DCEC"/>
<circle cx="304.115" cy="367.269" r="2.42308" fill="#C9DCEC"/>
<circle cx="328.346" cy="367.269" r="2.42308" fill="#C9DCEC"/>
<circle cx="352.577" cy="367.269" r="2.42308" fill="#C9DCEC"/>
</svg>
