<svg width="35" height="40" viewBox="0 0 35 40" fill="none" xmlns="http://www.w3.org/2000/svg">
<path d="M33.3872 17.1476L4.80118 0.430952C4.3078 0.142857 3.75856 0 3.21165 0C3.20001 0 3.18838 0.00238095 3.17674 0.00238095C3.10227 0.00238095 3.03012 0.00714286 2.95565 0.0119048C2.92307 0.0142857 2.88816 0.0190476 2.85558 0.0214286C2.79739 0.0285714 2.74154 0.0357143 2.68568 0.0452381C2.66474 0.047619 2.64379 0.05 2.62285 0.052381L2.62517 0.0547619C2.2691 0.12381 1.92233 0.252381 1.59884 0.445238C0.609748 1.03095 0 2.11429 0 3.28333V36.7167C0 37.8857 0.609748 38.969 1.59884 39.5571C1.92233 39.7476 2.2691 39.8762 2.62517 39.9429V39.9452C2.64379 39.9476 2.66474 39.95 2.68103 39.9524C2.74154 39.9643 2.80437 39.9714 2.86488 39.9786C2.89514 39.9833 2.92539 39.9857 2.95565 39.9881C3.02779 39.9952 3.09994 39.9976 3.17209 39.9976C3.18372 39.9976 3.19536 40 3.20932 40C3.75856 40 4.30547 39.8571 4.79886 39.569L33.3849 22.8524C34.3856 22.2667 35 21.181 35 20.0024V19.9976C35.0023 18.8214 34.3856 17.7333 33.3872 17.1476ZM22.0813 13.8286L19.2396 17.6429L12.0088 7.9381L22.0813 13.8286ZM32.0001 20.3714L12.0088 32.0619L24.5272 15.2595L32.0001 19.631C32.1305 19.7071 32.2096 19.8476 32.2096 20C32.2096 20.1548 32.1305 20.2952 32.0001 20.3714Z" fill="white"/>
</svg>
