<svg width="174" height="47" viewBox="0 0 174 47" fill="none" xmlns="http://www.w3.org/2000/svg">
<path d="M164.351 22.2481L173.619 46.7398C170.888 46.3504 168.158 45.8627 165.378 45.4233L160.158 31.8907L154.794 44.3062C152.161 43.8668 149.574 43.7205 146.941 43.3792L156.354 21.9569L147.817 0H155.719L160.498 12.2677L165.62 0H173.617L164.351 22.2481ZM141.577 0H134.407V42.4553C136.748 42.6018 139.186 42.6983 141.577 42.9897V0ZM128.213 41.9678C121.678 41.5299 115.142 41.142 108.46 40.994V0.000188096H115.775V34.0811C119.971 34.1777 124.164 34.5174 128.213 34.7121V41.9678ZM100.655 16.6035V23.9058H90.6569V40.5078H83.4402V0H103.925V7.30229H90.6584V16.6037H100.656L100.655 16.6035ZM71.1478 7.30229V40.8973C68.7084 40.8973 66.2223 40.8973 63.8311 40.994V7.30229H56.2711V0H78.7545V7.30229H71.1478ZM48.3707 24.2938C45.1523 24.2938 41.3473 24.2938 38.616 24.4419V35.2979C42.908 35.005 47.2 34.6653 51.5402 34.5189V41.5299L31.3009 43.1377V0H51.5389V7.30229H38.6158V17.1379C41.4454 17.1379 45.7858 16.9915 48.3703 16.9915V24.2953L48.3707 24.2938ZM7.83832 20.204V45.7162C5.20694 46.009 2.86422 46.3502 0.37793 46.7398V0H7.35294L16.8627 26.5359V0H24.1793V43.7204C21.5946 44.1598 18.9602 44.3062 16.1806 44.6942L7.83832 20.204Z" fill="#E50914"/>
</svg>
